#!OML:ASF F:\VICON\USERDATA\INSTALL\rory3\rory3.ASF
:FULLY-SPECIFIED
:DEGREES
36
root 0.32066859935393066 17.745249363535827 6.617690733017569 -1.606807137930825 1.98430221234586 1.8645401759470546
lfemur 17.573977046321566 -5.0616677640202905 -26.18276408309877
ltibia 21.793553914325525
lfoot -6.98358589451181 -6.740541725128345
ltoes -17.681347601288184
rfemur -28.895750382259212 5.3840237720371125 18.602681581670247
rtibia 22.53954490279018
rfoot -3.8747744211337762 -5.942787075763221
rtoes -1.1953222450976653
lowerback 9.240009430982958 -1.7473566029635288 -4.006377262019857
upperback 0.21451789359744985 -2.659829070087508 1.8763083271604266
thorax -4.707587044575238 -1.2131122441984028 4.254544160736452
lowerneck -17.0701225232602 -2.6875813900276846 -2.162054612315422
upperneck 21.50409857524455 -3.2754229624279607 0.09286112473089458
head 9.658547597408168 -1.6610897449316875 -0.0006768079168270602
lclavicle -2.1942224943891104e-15 6.843932668984952e-16
lhumerus -22.694236960390917 -4.223814353928202 82.4039509885841
lradius 32.21416811117163
lwrist 7.967229082025294
lhand -29.25010700238908 24.082246272813354
lfingers 7.12502
lthumb -2.593153528387423 54.04058500350466
rclavicle -2.1942224943891104e-15 6.843932668984952e-16
rhumerus -33.69101577771749 -28.22713725301442 -73.39831224301592
rradius 19.48110732798296
rwrist 13.372826316227716
rhand -17.9244266620724 21.000473131424133
rfingers 7.12502
rthumb 8.343166280155332 -8.81069715988328
37
root 0.1990202567025695 17.81843506297414 7.667901608024291 -2.1381608738474656 2.0435038006926445 0.2137652667811647
lfemur 14.939405045446236 -4.729576571714373 -23.338035793569016
ltibia 32.178635258918
lfoot 0.939566972503104 -11.381933582127052
ltoes -18.104744307499434
rfemur -27.056424851839605 5.11701983416128 21.57601268888223
rtibia 26.28061319668366
rfoot -3.0066788864243357 -3.470541161141536
rtoes 3.374687652185929
lowerback 9.32471659223897 -1.816762638344101 -2.4475610185045173
upperback 0.16005367837958004 -2.551913918476703 2.4269793893946474
thorax -4.811295174285378 -1.1863514719729498 3.9807904182970115
lowerneck -16.94164786221038 -2.620030688354707 -2.128197254599005
upperneck 21.64843227553943 -3.1555374148471786 -0.10663297917868397
head 9.682721589008532 -1.623241728729775 -0.04581191441128432
lclavicle -2.013028018597186e-15 8.518336240212787e-16
lhumerus -24.31832727025474 -3.1863655856972795 82.82761673994864
lradius 31.886856653751227
lwrist 7.862925498294946
lhand -28.84630668532171 24.23050161159329
lfingers 7.12502
lthumb -2.2031682969803033 54.190207841229736
rclavicle -2.013028018597186e-15 8.518336240212787e-16
rhumerus -34.250226444069284 -29.407035321035423 -72.33116205791792
rradius 18.82092747733131
rwrist 14.770936458479984
rhand -17.70434971426035 21.03927541129527
rfingers 7.12502
rthumb 8.555531275706851 -8.763576922746168
38
root 0.08527552836762808 17.93420489837001 8.782271441950712 -2.653107447656656 2.1586598349726773 -1.4604515363487351
lfemur 10.567429074628823 -3.7276985537438896 -20.029280265250176
ltibia 44.12381296452627
lfoot 9.556145309941172 -15.699132724675005
ltoes -14.718266544806582
rfemur -24.036146509890592 5.186574775220667 24.542047256704798
rtibia 28.94880660961248
rfoot -3.2589316921242624 -2.5487383153191057
rtoes 7.416953107571919
lowerback 9.480397414645717 -1.784875485710958 -0.7908691056461634
upperback 0.1573680581950168 -2.2999582584301344 2.9389552772509338
thorax -4.910716826341012 -1.091744953288621 3.648194184615231
lowerneck -16.775891319666773 -2.616676886442461 -2.075305499943762
upperneck 21.739512007064462 -3.149471650355604 -0.14539874033551115
head 9.687896149865018 -1.6246200227017684 -0.06089441844737417
lclavicle -1.6445310642783157e-15 1.191448822727023e-15
lhumerus -26.0169853443188 -2.5558833093055027 83.38081129540026
lradius 31.20180172408708
lwrist 7.445250548537901
lhand -27.840524297682336 24.70837633956193
lfingers 7.12502
lthumb -1.2318269438494984 54.672290327722465
rclavicle -1.6445310642783157e-15 1.191448822727023e-15
rhumerus -34.232758350191816 -29.393440424906824 -72.11457166198132
rradius 18.657892575859513
rwrist 15.013370679467332
rhand -17.374295070487268 21.38661442345882
rfingers 7.12502
rthumb 8.874031593318978 -8.404354573128751
39
root -0.015330566515868338 18.059274956227835 9.374539351978335 -3.1371433868206053 2.119857456075733 -3.001509415225356
lfemur 4.602206247583954 -2.4486560631036545 -17.078262959089663
ltibia 55.49680732672514
lfoot 15.397511127811253 -18.224034889242674
ltoes -9.34932626910105
rfemur -20.684899485043545 5.505712712755265 26.996661772307696
rtibia 29.188792387650548
rfoot -4.971564122588785 -3.32850995025912
rtoes 9.831188924572517
lowerback 9.661018357560339 -1.641794556065662 0.5245308894868033
upperback 0.19454073159713756 -1.9435735469405815 3.258485512983256
thorax -5.008975392489259 -0.9401851635217013 3.1910944789803732
lowerneck -16.644993601961588 -2.685646664241618 -2.026007548377331
upperneck 21.727846525509555 -3.2770328946266067 -0.0037185574976785762
head 9.665325579676074 -1.669321594680929 -0.043128641620002905
lclavicle -1.7358673916565941e-15 1.107388834942129e-15
lhumerus -27.50698759982266 -2.768232039939588 84.01706516646897
lradius 30.254881956911156
lwrist 6.603059316269697
lhand -26.929348818734265 24.750651184583134
lfingers 7.12502
lthumb -0.3518625796818051 54.718725828802675
rclavicle -1.735867391656594e-15 1.107388834942129e-15
rhumerus -33.761330305939126 -28.353428578787643 -72.92218658372673
rradius 18.874116500905725
rwrist 14.05804101370204
rhand -16.95812452144099 22.159049642619852
rfingers 7.12502
rthumb 9.275648273725364 -7.615626242731416
